<?xml version="1.0" encoding="UTF-8"?>
<svg xmlns="http://www.w3.org/2000/svg" version="1.1" viewBox="0 0 433.5 91.2">
  <defs>
    <style>
      .cls-1, .cls-2 {
        isolation: isolate;
      }

      .cls-3 {
        fill: #fc563c;
      }

      .cls-2 {
        fill: #fff;
        font-family: MyriadPro-Bold, 'Myriad Pro';
        font-size: 48px;
        font-weight: 700;
      }
    </style>
  </defs>
  <!-- Generator: Adobe Illustrator 28.6.0, SVG Export Plug-In . SVG Version: 1.2.0 Build 709)  -->
  <g>
    <g id="_Слой_1" data-name="Слой_1">
      <g id="_Слой_1-2" data-name="_Слой_1">
        <polygon class="cls-3" points="91.8 90 0 90 0 2.2 91.8 2.2 99 2.2 130.5 60.6 133.4 60.6 132.9 2.2 151 2.2 151 90 126.2 90 92.1 30.9 91.8 90"/>
        <path class="cls-3" d="M169.9,2.2v87.9h67.1c0-6,0-11.9,0-17.8-15.7,0-31.3,0-47,0v-18c12,0,24,0,36.1,0,0-6,0-12,0-18.1-12,0-24,0-35.9,0v-16.2c0,0,45.6,0,45.6,0l.5-17.8h-66.1Z"/>
        <path class="cls-3" d="M248.1,2.2l10.1,87.9h27.8l11.5-43.9h1.9s11.8,43.9,11.8,43.9h28.7l9.4-87.9h-17.9l-7.5,65.6c-.9-.2-1.8-.3-2.6-.5-3.7-13-7.3-26-11-39l-23.3.2c-3,10.5-6,21-8.9,31.5-.5,2.5-1.1,5-1.7,7.5-.9,0-1.9.2-2.8.2-2.5-21.8-5-43.7-7.5-65.6h-17.9,0Z"/>
        <path class="cls-3" d="M429.5,23.6c3.3-6.9-7.8-16.1-13.4-19-12.2-6.3-30.1-6.3-41.6,1.2-11.2,6.8-14.8,21.2-9.4,32.9,3.5,7.9,12.2,10.9,20.1,12.7,7.8,2.3,19.9,1.8,25.5,8.1,2.6,3.1,2.2,7.9-.6,10.8-5.2,5.3-16.2,5.3-22.7,2.1-5.2-2.6-8.3-8.5-14.4-9.3-5.1-1.1-13.6-.2-12.3,6.5,2.9,11,14,18.9,24.9,20.8,10.7,1.5,22.1,1.3,32.2-2.8,17-7,21.2-31.6,7.2-43.2-3.7-2.9-8.7-3.9-14.1-5.4-6.4-1.8-13.4-2.8-19.2-5.8-5.8-2.9-8.9-10.2-2.3-13.7,3.8-2,8.6-2.1,12.7-1,4.8,1.3,8.4,5,12.9,6.7,4.4,1.5,11,2.4,14.3-1.5h0c0-.1,0-.1,0-.1Z"/>
        <g class="cls-1">
          <text class="cls-2" transform="translate(8.7 61.3)"><tspan x="0" y="0">K/C</tspan></text>
        </g>
      </g>
    </g>
  </g>
</svg>